<?xml version="1.0" standalone="no"?>
<!DOCTYPE svg PUBLIC "-//W3C//DTD SVG 20010904//EN"
 "http://www.w3.org/TR/2001/REC-SVG-20010904/DTD/svg10.dtd">
<svg version="1.0" xmlns="http://www.w3.org/2000/svg"
 width="503.000000pt" height="503.000000pt" viewBox="0 0 503.000000 503.000000"
 preserveAspectRatio="xMidYMid meet">
<metadata>
Created by potrace 1.14, written by Peter Selinger 2001-2017
</metadata>
<g transform="translate(0.000000,503.000000) scale(0.100000,-0.100000)"
fill="#000000" stroke="none">
<path d="M3020 4421 c-36 -34 -93 -153 -115 -242 -9 -36 -20 -72 -25 -80 -8
-11 -51 -14 -247 -14 -193 1 -504 10 -608 18 -11 1 -49 -2 -83 -6 -70 -9 -112
7 -112 42 0 25 -106 165 -169 224 -89 83 -145 92 -189 30 -25 -36 -32 -69 -33
-163 -2 -76 9 -239 17 -251 2 -4 4 -51 5 -106 1 -100 0 -102 -54 -239 -66
-166 -64 -158 -72 -262 -4 -45 -13 -106 -21 -135 -20 -70 -21 -79 -29 -177 -4
-46 -8 -87 -10 -91 -16 -25 -20 -340 -6 -414 5 -27 21 -79 34 -115 18 -48 27
-96 32 -180 5 -91 14 -137 41 -219 29 -88 34 -119 34 -196 0 -89 7 -127 35
-190 16 -35 11 -47 -45 -99 -71 -66 -154 -220 -165 -301 -15 -120 -46 -228
-92 -322 l-48 -98 2 -170 c3 -369 15 -498 55 -620 l13 -40 1883 -3 1882 -2 0
303 0 303 -29 45 c-15 24 -38 54 -49 67 -11 13 -26 47 -32 75 -19 91 -77 190
-160 275 -69 70 -77 82 -89 137 -26 123 -73 193 -191 289 -45 36 -86 66 -90
66 -4 0 -6 36 -3 80 5 63 3 84 -11 104 -19 31 -112 91 -181 119 -27 11 -52 22
-54 23 -1 2 -5 20 -8 41 -9 65 -41 110 -102 141 -65 33 -73 55 -36 97 14 17
26 36 26 43 5 44 5 58 0 67 -6 11 -7 14 -16 70 -4 22 -9 42 -11 44 -2 2 1 13
7 24 8 14 8 18 0 13 -10 -6 -29 66 -23 87 1 4 -3 7 -9 7 -6 0 -9 6 -6 13 2 6
0 20 -5 30 -5 10 -5 17 1 17 6 0 4 15 -4 34 -8 19 -12 41 -9 49 3 8 -1 21 -8
28 -7 8 -13 21 -13 29 1 8 -1 20 -4 25 -3 6 -7 16 -8 23 -5 20 -10 36 -16 52
-24 57 -51 136 -49 143 1 4 -3 7 -8 7 -6 0 -10 6 -10 13 0 12 -30 92 -65 172
-14 32 -26 67 -27 75 0 3 -5 14 -11 25 -6 11 -10 24 -9 28 1 4 -3 18 -10 30
-7 12 -13 24 -13 27 0 3 -6 15 -13 28 -7 12 -10 22 -7 22 4 0 -1 7 -9 16 -9 8
-16 24 -16 35 0 10 -4 19 -9 19 -12 0 -22 44 -26 116 -6 100 -33 195 -90 319
-30 65 -44 96 -109 238 -56 123 -66 146 -66 154 0 19 -93 130 -122 146 -46 24
-74 21 -108 -12z"/>
</g>
</svg>
